<?xml version="1.0" standalone="no"?>
<!DOCTYPE svg PUBLIC "-//W3C//DTD SVG 20010904//EN"
 "http://www.w3.org/TR/2001/REC-SVG-20010904/DTD/svg10.dtd">
<svg version="1.0" xmlns="http://www.w3.org/2000/svg"
 width="512.000000pt" height="512.000000pt" viewBox="0 0 512.000000 512.000000"
 preserveAspectRatio="xMidYMid meet">

<g transform="translate(0.000000,512.000000) scale(0.100000,-0.100000)"
fill="#000000" stroke="none">
<path d="M3304 4688 c29 -46 66 -108 81 -138 124 -246 356 -464 641 -605 140
-69 179 -101 190 -160 3 -19 4 -200 2 -402 -4 -316 -8 -389 -27 -518 -30 -195
-96 -456 -161 -631 -118 -321 -332 -690 -576 -994 -206 -257 -535 -564 -787
-735 -95 -64 -102 -83 -15 -39 315 159 727 472 965 732 464 509 733 1039 842
1662 34 193 41 308 41 672 0 428 12 392 -158 473 -303 146 -515 342 -675 626
-73 130 -91 139 -279 139 l-138 0 54 -82z"/>
<path d="M2394 4310 c-189 -49 -353 -182 -438 -354 -62 -126 -69 -164 -73
-447 l-5 -257 -106 -4 c-85 -2 -114 -7 -142 -24 -51 -30 -77 -75 -85 -147 -3
-34 -5 -298 -3 -587 l3 -525 24 -38 c12 -21 39 -46 60 -56 34 -18 82 -19 936
-22 l900 -4 37 23 c20 13 47 40 60 60 l23 37 3 525 c2 289 0 553 -3 587 -7 67
-31 112 -78 147 -24 18 -46 21 -148 24 l-119 4 0 252 c0 284 -9 338 -78 471
-50 96 -181 227 -279 278 -146 76 -334 98 -489 57z m301 -145 c181 -47 333
-199 380 -380 11 -45 15 -116 15 -297 l0 -238 -530 0 -530 0 0 223 c0 255 10
322 65 425 53 101 155 197 253 239 104 44 241 55 347 28z m-72 -1369 c130 -47
158 -218 50 -304 l-33 -27 0 -118 c0 -112 -1 -119 -25 -142 -27 -27 -70 -32
-97 -11 -29 22 -38 63 -38 171 0 98 -1 105 -23 120 -26 17 -61 75 -71 118 -16
66 35 155 109 188 47 22 77 23 128 5z"/>
</g>
</svg>
